<svg xmlns="http://www.w3.org/2000/svg" xmlns:xlink="http://www.w3.org/1999/xlink" preserveAspectRatio="xMidYMid" width="43" height="31" viewBox="0 0 43 31">
  <defs>
    <style>
      .cls-1 {
        fill: #835fa8;
        fill-rule: evenodd;
      }
    </style>
  </defs>
  <path d="M39.535,19.244 C39.783,18.295 39.929,17.304 39.929,16.275 C39.929,9.855 34.772,4.650 28.411,4.650 C26.776,4.650 25.223,4.999 23.814,5.619 C22.401,2.315 19.149,0.000 15.357,0.000 C10.268,0.000 6.143,4.164 6.143,9.300 C6.143,9.646 6.207,9.974 6.244,10.310 C2.561,12.031 0.000,15.785 0.000,20.150 C0.000,26.143 4.813,31.000 10.750,31.000 L36.857,31.000 C40.250,31.000 43.000,28.224 43.000,24.800 C43.000,22.350 41.580,20.252 39.535,19.244 ZM36.857,29.450 L10.750,29.450 C5.670,29.450 1.536,25.278 1.536,20.150 C1.536,16.546 3.637,13.236 6.889,11.716 L7.890,11.249 L7.771,10.141 C7.758,10.025 7.743,9.911 7.727,9.797 C7.705,9.633 7.679,9.470 7.679,9.300 C7.679,5.026 11.123,1.550 15.357,1.550 C18.421,1.550 21.187,3.388 22.404,6.233 L23.016,7.661 L24.428,7.040 C25.694,6.483 27.034,6.200 28.411,6.200 C33.915,6.200 38.393,10.719 38.393,16.275 C38.393,17.113 38.277,17.979 38.050,18.849 L37.729,20.079 L38.862,20.637 C40.467,21.428 41.464,23.023 41.464,24.800 C41.464,27.365 39.398,29.450 36.857,29.450 ZM22.268,22.088 L22.268,10.850 L20.732,10.850 L20.732,22.088 L16.509,17.825 L15.741,18.988 L21.500,24.800 L27.259,18.988 L26.491,17.825 L22.268,22.088 Z" class="cls-1"/>
</svg>
