<svg xmlns="http://www.w3.org/2000/svg" xmlns:xlink="http://www.w3.org/1999/xlink" preserveAspectRatio="xMidYMid" width="52.312" height="43.62" viewBox="0 0 52.312 43.62">
  <defs>
    <style>
      .cls-1 {
        fill: #3dd2ae;
        fill-rule: evenodd;
      }
    </style>
  </defs>
  <path d="M51.565,0.746 C50.135,-0.658 47.679,0.353 47.679,0.353 C44.104,1.055 24.268,20.585 24.268,20.585 L22.247,22.570 L17.193,29.513 L15.171,31.497 C15.171,31.497 10.115,30.507 8.093,33.482 C6.071,39.433 5.061,41.418 0.006,41.418 C17.193,48.361 20.225,36.458 20.225,36.458 L22.247,34.474 L29.323,29.513 L31.346,27.529 C31.346,27.529 51.252,8.069 51.968,4.561 C51.968,4.561 52.994,2.149 51.565,0.746 ZM9.611,41.608 C8.609,41.608 7.538,41.502 6.405,41.291 C7.968,39.758 8.878,37.430 9.910,34.408 C10.716,33.469 12.335,33.323 13.263,33.323 C14.128,33.323 14.777,33.444 14.783,33.445 C14.910,33.469 15.039,33.481 15.167,33.481 C15.631,33.481 16.080,33.317 16.443,33.027 L18.668,35.218 C18.484,35.442 18.335,35.695 18.263,35.976 C18.204,36.192 16.649,41.608 9.611,41.608 ZM50.094,3.814 C50.049,3.924 50.008,4.055 49.985,4.173 C49.319,6.273 39.256,16.995 29.919,26.124 L28.012,27.995 L21.072,32.859 C20.981,32.922 20.896,32.993 20.818,33.071 L20.161,33.716 L17.969,31.558 L18.622,30.916 C18.701,30.839 18.773,30.755 18.837,30.666 L23.795,23.856 L25.699,21.988 C35.005,12.824 45.934,2.951 48.117,2.289 C48.248,2.263 48.336,2.234 48.460,2.184 C48.590,2.133 49.068,1.985 49.530,1.985 C49.821,1.985 50.024,2.041 50.135,2.149 C50.436,2.445 50.271,3.375 50.094,3.814 Z" class="cls-1"/>
</svg>
