<svg xmlns="http://www.w3.org/2000/svg" xmlns:xlink="http://www.w3.org/1999/xlink" preserveAspectRatio="xMidYMid" width="63" height="79" viewBox="0 0 63 79">
  <defs>
    <style>
      .cls-1 {
        fill: #835fa8;
        fill-rule: evenodd;
      }
    </style>
  </defs>
  <path d="M54.964,53.979 L54.805,54.162 L45.087,64.521 L45.302,64.767 L42.944,66.806 L40.809,69.082 L40.569,68.860 L40.323,69.074 L38.272,66.727 L35.984,64.604 L36.207,64.366 L35.700,63.786 L35.696,63.789 L33.567,61.345 L31.374,58.836 L31.378,58.833 L29.659,56.860 L29.669,56.851 L19.191,44.724 C19.181,44.713 19.175,44.699 19.165,44.688 C18.094,43.524 17.314,42.224 16.862,40.812 C16.358,39.358 16.195,37.812 16.375,36.213 C16.569,33.036 17.960,30.273 20.402,28.216 C22.808,26.196 25.717,25.281 28.827,25.559 C30.699,25.662 32.406,26.194 33.906,27.143 C34.972,27.733 35.934,28.526 36.769,29.505 L45.831,39.929 C47.024,41.301 46.872,43.373 45.494,44.559 C44.116,45.744 42.033,45.595 40.841,44.223 L31.767,33.786 C31.760,33.777 31.752,33.768 31.744,33.759 C31.407,33.363 31.052,33.068 30.658,32.858 C30.573,32.812 30.489,32.763 30.407,32.710 C29.848,32.344 29.201,32.149 28.429,32.111 C28.376,32.109 28.323,32.105 28.271,32.100 C26.887,31.968 25.738,32.326 24.662,33.229 C23.575,34.144 23.032,35.238 22.959,36.665 C22.955,36.743 22.948,36.819 22.938,36.896 C22.857,37.554 22.913,38.142 23.107,38.692 C23.120,38.728 23.132,38.765 23.143,38.802 C23.312,39.339 23.620,39.837 24.086,40.326 C24.105,40.346 24.117,40.369 24.136,40.390 C24.154,40.410 24.177,40.425 24.195,40.446 L36.815,55.051 C36.815,55.051 36.815,55.051 36.815,55.051 L38.577,57.074 L40.734,59.541 L49.896,49.774 C54.273,44.321 56.401,38.409 56.401,31.705 C56.401,24.667 53.991,18.838 49.032,13.886 C44.134,9.062 38.386,6.662 31.475,6.565 C24.569,6.662 18.839,9.060 13.958,13.895 C9.009,18.838 6.599,24.667 6.599,31.705 C6.599,38.437 8.735,44.368 13.125,49.838 L34.038,73.553 C35.240,74.916 35.103,76.989 33.733,78.185 C33.107,78.731 32.331,79.000 31.559,79.000 C30.642,79.000 29.730,78.621 29.077,77.882 L10.174,56.445 L10.060,56.536 L7.999,53.973 C2.691,47.377 0.000,39.885 0.000,31.705 C0.000,22.965 3.127,15.412 9.293,9.254 C15.382,3.220 22.828,0.110 31.433,0.001 L31.475,0.000 L31.517,0.001 C40.118,0.110 47.579,3.218 53.691,9.237 C59.874,15.412 63.000,22.966 63.000,31.705 C63.000,39.887 60.296,47.382 54.964,53.979 Z" class="cls-1"/>
</svg>
