<svg xmlns="http://www.w3.org/2000/svg" xmlns:xlink="http://www.w3.org/1999/xlink" preserveAspectRatio="xMidYMid" width="43.97" height="43.97" viewBox="0 0 43.97 43.97">
  <defs>
    <style>
      .cls-1 {
        fill: #3dd2ae;
        fill-rule: evenodd;
      }
    </style>
  </defs>
  <path d="M27.800,0.002 C18.866,0.002 11.624,7.244 11.624,16.178 C11.624,20.259 13.147,23.975 15.640,26.822 L-0.002,42.464 L1.514,43.980 L17.156,28.339 C20.002,30.831 23.719,32.354 27.800,32.354 C36.733,32.354 43.976,25.112 43.976,16.178 C43.976,7.244 36.733,0.002 27.800,0.002 ZM27.800,30.332 C19.983,30.332 13.646,23.995 13.646,16.178 C13.646,8.361 19.983,2.024 27.800,2.024 C35.617,2.024 41.954,8.361 41.954,16.178 C41.954,23.995 35.617,30.332 27.800,30.332 Z" class="cls-1"/>
</svg>
