<?xml version="1.0" encoding="UTF-8"?>
<svg width="280px" height="859px" viewBox="0 0 280 859" version="1.1" xmlns="http://www.w3.org/2000/svg" xmlns:xlink="http://www.w3.org/1999/xlink">
    <!-- Generator: Sketch 58 (84663) - https://sketch.com -->
    <title>BG_Excl</title>
    <desc>Created with Sketch.</desc>
    <g id="Desktop" stroke="none" stroke-width="1" fill="none" fill-rule="evenodd" opacity="0.2">
        <g id="Landing" transform="translate(-427.000000, -2774.000000)" fill="#D2DFEC">
            <g id="bg" transform="translate(132.000000, 439.000000)">
                <g id="BG_Excl" transform="translate(295.000000, 2335.000000)">
                    <g id="Group-49">
                        <path d="M33.1194737,530.8 C24.1457446,530.8 16.3958221,527.528428 9.86947368,520.985185 C3.34312526,514.441943 0.08,506.671959 0.08,497.675 L0.08,33.925 C0.08,24.9280414 3.34312526,17.1580574 9.86947368,10.6148148 C16.3958221,4.07157222 24.1457446,0.8 33.1194737,0.8 L246.040526,0.8 C255.014255,0.8 262.764178,4.07157222 269.290526,10.6148148 C275.816875,17.1580574 279.08,24.9280414 279.08,33.925 L279.08,497.675 C279.08,506.671959 275.816875,514.441943 269.290526,520.985185 C262.764178,527.528428 255.014255,530.8 246.040526,530.8 L33.1194737,530.8 Z" id="Path" fill-rule="nonzero"></path>
                        <path d="M33.1194737,858.8 C24.1457446,858.8 16.3958221,855.536875 9.86947368,849.010526 C3.34312526,842.484178 0.08,834.734255 0.08,825.760526 L0.08,612.839474 C0.08,603.865745 3.34312526,596.115822 9.86947368,589.589474 C16.3958221,583.063125 24.1457446,579.8 33.1194737,579.8 L246.040526,579.8 C255.014255,579.8 262.764178,583.063125 269.290526,589.589474 C275.816875,596.115822 279.08,603.865745 279.08,612.839474 L279.08,825.760526 C279.08,834.734255 275.816875,842.484178 269.290526,849.010526 C262.764178,855.536875 255.014255,858.8 246.040526,858.8 L33.1194737,858.8 Z" id="Path" fill-rule="nonzero"></path>
                    </g>
                </g>
            </g>
        </g>
    </g>
</svg>