<?xml version="1.0" encoding="UTF-8"?>
<svg width="741px" height="871px" viewBox="0 0 741 871" version="1.1" xmlns="http://www.w3.org/2000/svg" xmlns:xlink="http://www.w3.org/1999/xlink">
    <!-- Generator: Sketch 58 (84663) - https://sketch.com -->
    <title>BG_Question</title>
    <desc>Created with Sketch.</desc>
    <g id="Desktop" stroke="none" stroke-width="1" fill="none" fill-rule="evenodd" opacity="0.2">
        <g id="Landing" transform="translate(-567.000000, -1520.000000)" fill="#D2DFEC">
            <g id="bg" transform="translate(132.000000, 439.000000)">
                <g id="BG_Question" transform="translate(435.000000, 1081.000000)">
                    <g id="Group-48">
                        <path d="M247.563444,560.8 C241.845976,560.8 236.536978,558.553487 231.636291,554.060394 C226.735605,549.567301 224.285298,544.461589 224.285298,538.743107 C224.285298,534.658477 224.693682,531.390822 225.510464,528.940044 C234.495056,501.981484 248.992703,476.2487 269.003841,451.740919 C289.014979,427.233138 314.130622,401.091897 344.351523,373.316411 C369.671738,348.80863 387.844846,330.019613 398.871391,316.948796 C409.897936,303.87798 415.411126,291.215816 415.411126,278.961926 C415.411126,266.708035 411.531474,257.109298 403.772053,250.165427 C396.012632,243.221555 386.007214,239.749672 373.755497,239.749672 C352.519187,239.749672 337.408963,243.630012 328.424371,251.39081 C319.439778,259.151607 310.863705,270.384172 302.695894,285.08884 C296.978426,295.708879 291.261044,303.46956 285.543576,308.371116 C279.826108,313.272672 270.841651,315.723414 258.589934,315.723414 L30.7091391,315.723414 C21.7245467,315.723414 14.3736268,312.25153 8.65615894,305.307659 C2.93869106,298.363787 0.08,289.173507 0.08,277.736543 C1.71356225,233.622537 17.2321709,190.326106 46.6362914,147.845952 C76.0404119,105.365798 120.145931,70.238505 178.954172,42.4630197 C237.762413,14.6875344 310.046459,0.8 395.808477,0.8 C482.387276,0.8 551.404246,13.4621637 602.861457,38.7868709 C654.318668,64.1115781 690.052306,94.1331597 710.063444,128.852516 C730.074581,163.571873 740.08,197.269567 740.08,229.946608 C740.08,260.989798 734.362618,289.58178 722.927682,315.723414 C711.492746,341.865047 697.811868,364.738633 681.884636,384.344858 C665.957404,403.951083 644.517221,427.233126 617.563444,454.191685 C598.777478,472.980984 582.033642,490.953173 567.331656,508.108534 C559.163844,518.728572 554.671616,524.446969 553.854834,525.263895 C543.23668,539.968564 535.681568,549.567301 531.189272,554.060394 C526.696975,558.553487 519.550248,560.8 509.748874,560.8 L247.563444,560.8 Z" id="Path" fill-rule="nonzero"></path>
                        <path d="M260.117975,870.8 C251.144653,870.8 243.395082,867.532427 236.86903,860.997183 C230.342977,854.461939 227.08,846.701453 227.08,837.715493 L227.08,642.884507 C227.08,633.898547 230.342977,626.138061 236.86903,619.602817 C243.395082,613.067573 251.144653,609.8 260.117975,609.8 L484.042025,609.8 C493.015347,609.8 500.764918,613.067573 507.29097,619.602817 C513.817023,626.138061 517.08,633.898547 517.08,642.884507 L517.08,837.715493 C517.08,846.701453 513.817023,854.461939 507.29097,860.997183 C500.764918,867.532427 493.015347,870.8 484.042025,870.8 L260.117975,870.8 Z" id="Path" fill-rule="nonzero"></path>
                    </g>
                </g>
            </g>
        </g>
    </g>
</svg>