<?xml version="1.0" encoding="UTF-8"?>
<svg width="30px" height="30px" viewBox="0 0 30 30" version="1.1" xmlns="http://www.w3.org/2000/svg" xmlns:xlink="http://www.w3.org/1999/xlink">
    <!-- Generator: Sketch 58 (84663) - https://sketch.com -->
    <title>icon/log</title>
    <desc>Created with Sketch.</desc>
    <g id="icon/log" stroke="none" stroke-width="1" fill="none" fill-rule="evenodd">
        <path d="M16.2005436,16.2857143 C19.7610332,16.2857143 22.6678683,19.0914205 22.7925698,22.606287 L22.7967381,22.841639 L22.7967381,25.2225914 C22.7967381,26.2134012 21.9935281,27.0166113 21.0027182,27.0166113 C20.0614489,27.0166113 19.2894883,26.2917142 19.2146454,25.3697289 L19.2086983,25.2225914 L19.2086983,22.841639 C19.2086983,21.2643376 17.9595135,19.969296 16.3776309,19.8788049 L16.2005436,19.8737542 L6.5961945,19.8737542 C4.99092488,19.8737542 3.68440901,21.1124636 3.59313398,22.6675917 L3.58803987,22.841639 L3.58803987,25.2225914 C3.58803987,26.2134012 2.78482978,27.0166113 1.79401993,27.0166113 C0.852750576,27.0166113 0.0807900078,26.2917142 0.00594712434,25.3697289 L1.13686838e-13,25.2225914 L1.13686838e-13,22.841639 C1.13686838e-13,19.2962897 2.82943316,16.4135106 6.35982027,16.2898479 L6.5961945,16.2857143 L16.2005436,16.2857143 Z M25.0493249,16.4965364 C27.8762898,17.2203338 29.8805627,19.7015242 29.994848,22.5861048 L30,22.841639 L30,25.2225914 C30,26.2134012 29.1967899,27.0166113 28.2059801,27.0166113 C27.2647107,27.0166113 26.4927501,26.2917142 26.4179073,25.3697289 L26.4119601,25.2225914 L26.4119606,22.8429885 C26.4109921,21.5553991 25.5692509,20.4201881 24.3378847,20.0239682 L24.1593734,19.9724559 L24.0646748,19.9454697 C23.1618484,19.6615664 22.6288278,18.7173741 22.8663894,17.7895204 C23.1121427,16.8296717 24.0894762,16.2507831 25.0493249,16.4965364 Z M11.3983691,2 C15.0379806,2 17.9945636,4.93178985 17.9945636,8.5559247 C17.9945636,12.1800595 15.0379806,15.1118494 11.3983691,15.1118494 C7.75875757,15.1118494 4.80217457,12.1800595 4.80217457,8.5559247 C4.80217457,4.93178985 7.75875757,2 11.3983691,2 Z M18.0633242,3.50729927 C18.3071483,2.54695872 19.2833166,1.96610736 20.2436571,2.20993145 C23.1618538,2.95084221 25.2072416,5.56381524 25.2072416,8.56187708 C25.2072416,11.5599389 23.1618538,14.1729119 20.2436571,14.9138227 C19.2833166,15.1576468 18.3071483,14.5767954 18.0633242,13.6164549 C17.8195001,12.6561143 18.4003515,11.679946 19.360692,11.4361219 L19.360692,11.4361219 L19.4806106,11.4030766 C20.7475451,11.026132 21.6192017,9.87286786 21.6192017,8.56187708 C21.6192017,7.20991783 20.6922153,6.02569715 19.360692,5.68763222 L19.360692,5.68763222 L19.2659394,5.66083638 C18.3625443,5.37874783 17.8276276,4.43562847 18.0633242,3.50729927 Z M11.3983691,5.58803987 C9.73364502,5.58803987 8.39021444,6.92020478 8.39021444,8.5559247 C8.39021444,10.1916446 9.73364502,11.5238095 11.3983691,11.5238095 C13.0630931,11.5238095 14.4065237,10.1916446 14.4065237,8.5559247 C14.4065237,6.92020478 13.0630931,5.58803987 11.3983691,5.58803987 Z" id="Combined-Shape" fill="#05396B" fill-rule="nonzero"></path>
    </g>
</svg>