<?xml version="1.0" encoding="UTF-8"?>
<svg width="30px" height="30px" viewBox="0 0 30 30" version="1.1" xmlns="http://www.w3.org/2000/svg" xmlns:xlink="http://www.w3.org/1999/xlink">
    <!-- Generator: Sketch 58 (84663) - https://sketch.com -->
    <title>icon/reg</title>
    <desc>Created with Sketch.</desc>
    <g id="icon/reg" stroke="none" stroke-width="1" fill="none" fill-rule="evenodd">
        <path d="M5.60939423,4.36972721 L5.60939423,6.9335601 C5.60939423,8.09071017 6.48344095,9.01752467 7.61933581,9.0959298 L7.77579609,9.10130463 L14.2917851,9.10130463 C15.4476509,9.10130463 16.4032782,8.22541523 16.4841913,7.08994766 L16.4897397,6.9335601 L16.4897397,4.36972721 L19.7296082,4.36972721 C20.4200355,4.36972721 20.9653125,4.89368413 21.0307752,5.5676591 L21.037371,5.70434355 L21.037371,10.1975966 L16.8052678,16.2658044 L5.51943518,16.2946718 C4.98035223,16.2946718 4.54331237,16.7390964 4.54331237,17.2781793 C4.54331237,17.7787564 4.92014776,18.1977147 5.40560137,18.2550119 L5.51943518,18.2616868 L15.4135878,18.2616868 L13.6063508,20.8429745 L5.51943518,20.8429745 C4.98035223,20.8429745 4.54331237,21.287399 4.54331237,21.8271533 C4.54331237,22.3264836 4.92014776,22.7453528 5.40560137,22.8026437 L5.51943518,22.8093181 L12.2005729,22.8093181 L12.1314252,22.9086759 C11.9380804,23.1825811 11.8320367,23.5137005 11.8302047,23.8525707 L11.8380513,24.0224226 L12.0025287,25.9565422 C12.0434802,26.4472889 12.302616,26.9004408 12.7154877,27.1877727 C12.9967776,27.3858169 13.3304317,27.4912167 13.6754985,27.4912167 C13.7775416,27.4912167 13.8789879,27.4816688 13.978843,27.4629708 L14.1273077,27.4281111 L16.0003357,26.9165529 C16.3231525,26.8273611 16.6119366,26.6444562 16.8299076,26.3932043 L16.9328216,26.2620001 L21.0366997,20.4341307 L21.0366997,28.6324882 C21.0366997,29.3268868 20.5318177,29.9255421 19.8567528,29.9935694 L19.7282655,30 L2.33461633,30 C1.64084962,30 1.07077602,29.4427863 1.00610912,28.7615647 L1,28.6324882 L1,5.70434355 C1,5.00994499 1.52866911,4.4404289 2.20597285,4.37582977 L2.33461633,4.36972721 L5.60939423,4.36972721 Z M13.9050954,22.6381274 L16.5743281,24.4990713 L15.8674111,25.512789 C15.8163896,25.5846219 15.7425426,25.6369861 15.6572829,25.6604829 L15.6572829,25.6604829 L13.7741849,26.1760691 C13.7419607,26.1854678 13.7083939,26.1901672 13.6754985,26.1901672 C13.6003088,26.1901672 13.5244478,26.1646564 13.4599996,26.1203482 C13.3693692,26.0558999 13.3096202,25.9558708 13.3015642,25.8437577 L13.3015642,25.8437577 L13.1344015,23.8995681 C13.1250028,23.8116231 13.1484996,23.723678 13.1981784,23.6518451 L13.1981784,23.6518451 L13.9050954,22.6381274 Z M27.0176338,4.36838454 C27.1112852,4.36838454 27.2060694,4.389154 27.2940564,4.43210903 L27.379484,4.48251169 L29.0094882,5.61841251 C29.1477835,5.71508492 29.2424419,5.86076488 29.272652,6.02725625 C29.295746,6.15937521 29.2758744,6.29450176 29.2181932,6.41373106 L29.1679236,6.49987692 L17.6202699,23.0563699 L14.9530512,21.1960973 L26.4993622,4.63893302 C26.6208741,4.46237161 26.8189183,4.36838454 27.0176338,4.36838454 Z M16.5454606,11.7456979 L5.51943518,11.7456979 C4.98035223,11.7456979 4.54331237,12.1894511 4.54331237,12.728534 C4.54331237,13.2291111 4.92014776,13.6480694 5.40560137,13.7053666 L5.51943518,13.7120415 L16.5454606,13.7120415 C17.0832009,13.7120415 17.5209121,13.267617 17.5209121,12.728534 C17.5209121,12.1894511 17.0832009,11.7456979 16.5454606,11.7456979 Z M11.0317766,-5.77315973e-15 C12.2406572,-5.77315973e-15 13.2306602,0.937166663 13.3169703,2.12313977 L13.323047,2.27918634 L14.3038691,2.27918634 C14.7587252,2.27918634 15.1352137,2.62011389 15.1904436,3.06119002 L15.1974176,3.17340614 L15.1974176,6.91744803 C15.1974176,7.3735435 14.855918,7.74955532 14.4158099,7.80470451 L14.3038691,7.81166782 L7.79392217,7.81166782 C7.3378267,7.81166782 6.9623869,7.47016824 6.90732572,7.02900412 L6.90037371,6.91677669 L6.90037371,3.17340614 C6.90037371,2.71731066 7.24072924,2.34129884 7.68171736,2.28614966 L7.79392217,2.27918634 L8.74050619,2.27918634 C8.74789089,1.01975966 9.76966456,-5.77315973e-15 11.0317766,-5.77315973e-15 Z M11.0324479,1.26949672 C10.5086267,1.26949672 10.0772052,1.66248797 10.0165522,2.16955585 L10.0093316,2.27985768 L12.0535502,2.27985768 C12.0475082,1.72063464 11.5930136,1.26949672 11.0324479,1.26949672 Z" id="Combined-Shape" fill="#05396B" fill-rule="nonzero"></path>
    </g>
</svg>