<?xml version="1.0" encoding="utf-8"?>
<!-- Generator: Adobe Illustrator 23.0.6, SVG Export Plug-In . SVG Version: 6.00 Build 0)  -->
<svg version="1.1" id="Layer_1" xmlns="http://www.w3.org/2000/svg" xmlns:xlink="http://www.w3.org/1999/xlink" x="0px" y="0px"
	 viewBox="0 0 76 76" style="enable-background:new 0 0 76 76;" xml:space="preserve">
<style type="text/css">
	.st0{fill:none;}
	.st1{fill:#D2DFEC;}
	.st2{fill:#05396B;}
</style>
<title>Icon_8years</title>
<desc>Created with Sketch.</desc>
<g id="Desktop">
	<g id="Landing" transform="translate(-320.000000, -1863.000000)">
		<g id="body" transform="translate(-12.000000, 10.000000)">
			<g id="content">
				<g id="section-kampaaniast" transform="translate(332.000000, 860.000000)">
					<g id="Group-19" transform="translate(0.000000, 860.000000)">
						<g id="Group-17" transform="translate(0.000000, 130.000000)">
							<g id="Icon_8years">
								<g id="Group-14">
									<rect id="Rectangle" y="3" class="st0" width="76" height="76"/>
									<path id="Shape" class="st1" d="M32.8,9.8c-1.5-4.5-7.9-4.5-9.4,0L14.6,36H5c-2.7,0-5,2.2-5,5s2.2,5,5,5h13.2
										c2.1,0,4-1.4,4.7-3.4L28.1,27l15.1,45.2c1.5,4.5,7.9,4.5,9.4,0L61.4,46H71c2.7,0,5-2.2,5-5s-2.2-5-5-5H57.8
										c-2.1,0-4,1.4-4.7,3.4L47.9,55L32.8,9.8z"/>
									<path class="st2" d="M1.4,48.2c-0.4,0-0.7-0.1-1-0.4S0,47.2,0,46.8v-7.4c0-0.4,0.1-0.7,0.4-1c0.3-0.3,0.6-0.4,1-0.4h16.8
										c0.4,0,0.7,0.1,1,0.4c0.3,0.3,0.4,0.6,0.4,1v7.4c0,0.4-0.1,0.7-0.4,1c-0.3,0.3-0.6,0.4-1,0.4H1.4z M39.8,59.2
										c-3.8,0-7-0.6-9.5-1.7S26,55,24.9,53.2c-1.1-1.8-1.7-3.7-1.7-5.8c0-1.7,0.4-3.2,1.2-4.6s1.9-2.5,3.3-3.3
										c-2.1-1.6-3.2-3.8-3.2-6.7c0-2,0.5-3.8,1.5-5.4c1-1.6,2.6-3,4.9-4c2.3-1,5.2-1.5,8.8-1.5c5.2,0,9,1,11.5,3.1
										s3.6,4.6,3.6,7.7c0,3-1,5.3-3.1,6.8c1.4,0.7,2.5,1.8,3.4,3.2c0.8,1.5,1.2,3,1.2,4.8c0,2.1-0.6,4-1.7,5.8
										c-1.1,1.8-3,3.2-5.4,4.3S43.6,59.2,39.8,59.2z M39.8,36.3c1,0,1.8-0.3,2.4-0.8s0.9-1.2,0.9-2c0-0.8-0.3-1.5-0.9-2
										s-1.4-0.8-2.4-0.8s-1.8,0.3-2.4,0.8s-0.9,1.2-0.9,2c0,0.8,0.3,1.5,0.9,2S38.8,36.3,39.8,36.3z M39.8,50.5
										c1.1,0,1.9-0.3,2.6-0.8c0.7-0.6,1-1.3,1-2.2s-0.3-1.7-1-2.2c-0.7-0.6-1.5-0.8-2.6-0.8s-1.9,0.3-2.6,0.8
										c-0.7,0.6-1,1.3-1,2.2s0.3,1.7,1,2.2C37.8,50.2,38.7,50.5,39.8,50.5z"/>
								</g>
							</g>
						</g>
					</g>
				</g>
			</g>
		</g>
	</g>
</g>
</svg>
