<?xml version="1.0" encoding="utf-8"?>
<!-- Generator: Adobe Illustrator 23.0.6, SVG Export Plug-In . SVG Version: 6.00 Build 0)  -->
<svg version="1.1" id="Layer_1" xmlns="http://www.w3.org/2000/svg" xmlns:xlink="http://www.w3.org/1999/xlink" x="0px" y="0px"
	 viewBox="0 0 76 76" style="enable-background:new 0 0 76 76;" xml:space="preserve">
<style type="text/css">
	.st0{fill:none;}
	.st1{fill-rule:evenodd;clip-rule:evenodd;fill:#D2DFEC;}
	.st2{fill:#05396B;}
</style>
<title>Icon_Xheart</title>
<desc>Created with Sketch.</desc>
<g id="Desktop">
	<g id="Landing" transform="translate(-320.000000, -1734.000000)">
		<g id="body" transform="translate(-12.000000, 10.000000)">
			<g id="content">
				<g id="section-kampaaniast" transform="translate(332.000000, 860.000000)">
					<g id="Group-19" transform="translate(0.000000, 860.000000)">
						<g id="Group-16">
							<g id="Icon_Xheart">
								<g id="Group-15">
									<rect id="Rectangle" y="4" class="st0" width="76" height="76"/>
									<path id="Shape" class="st1" d="M70.1,14.3c-3.8-3.8-8.8-6-14.1-6s-10.4,2.2-14.1,6L38,18.3l-3.9-3.9c-7.8-8-20.5-8-28.3,0
										s-7.8,20.9,0,28.9l3.9,3.9L38,76.1l28.3-28.9l3.9-3.9c3.8-3.8,5.9-9,5.9-14.5S73.9,18.1,70.1,14.3z"/>
									<path id="X" class="st2" d="M9.1,30.3c-0.1,0-0.2,0-0.3-0.1c-0.1-0.1-0.1-0.2-0.1-0.3c0-0.1,0-0.2,0.1-0.2l4.3-6.6
										l-3.9-6.3c0-0.1-0.1-0.2-0.1-0.2c0-0.1,0-0.2,0.1-0.3c0.1-0.1,0.2-0.1,0.3-0.1H14c0.4,0,0.7,0.2,0.9,0.5l1.4,2.5l1.6-2.5
										c0.2-0.3,0.5-0.5,0.9-0.5h4.2c0.1,0,0.2,0,0.3,0.1s0.1,0.2,0.1,0.3c0,0.1,0,0.2-0.1,0.2L19.3,23l4.4,6.7
										c0,0.1,0.1,0.1,0.1,0.2c0,0.1,0,0.2-0.1,0.3s-0.2,0.1-0.3,0.1h-4.6c-0.4,0-0.6-0.2-0.8-0.5l-1.8-2.7l-1.7,2.7
										c-0.2,0.3-0.5,0.5-0.8,0.5H9.1z"/>
									<path class="st2" d="M16,70.1c-0.2,0-0.5-0.1-0.6-0.3s-0.3-0.4-0.3-0.6c0-0.2,0-0.3,0.1-0.4l8.5-13l-7.6-12.4
										C16,43.2,16,43,16,42.9c0-0.2,0.1-0.4,0.3-0.6c0.2-0.2,0.4-0.3,0.6-0.3h8.7c0.8,0,1.3,0.3,1.7,1l2.8,4.9l3.1-4.9
										c0.4-0.7,0.9-1,1.7-1h8.3c0.2,0,0.5,0.1,0.6,0.3c0.2,0.2,0.3,0.4,0.3,0.6c0,0.2,0,0.3-0.1,0.4l-7.8,12.3l8.6,13.2
										c0.1,0.1,0.1,0.3,0.1,0.4c0,0.2-0.1,0.4-0.3,0.6c-0.2,0.2-0.4,0.3-0.6,0.3H35c-0.7,0-1.3-0.3-1.7-0.9l-3.5-5.4l-3.3,5.4
										c-0.4,0.6-0.9,0.9-1.7,0.9H16z"/>
									<path class="st2" d="M57,61c-0.1,0-0.2,0-0.3-0.1c-0.1-0.1-0.1-0.2-0.1-0.3c0-0.1,0-0.2,0.1-0.2l4.3-6.6l-3.9-6.3
										c0-0.1-0.1-0.2-0.1-0.2c0-0.1,0-0.2,0.1-0.3s0.2-0.1,0.3-0.1h4.4c0.4,0,0.7,0.2,0.9,0.5l1.4,2.5l1.6-2.5
										c0.2-0.3,0.5-0.5,0.9-0.5h4.2c0.1,0,0.2,0,0.3,0.1s0.1,0.2,0.1,0.3c0,0.1,0,0.2-0.1,0.2l-3.9,6.2l4.4,6.7
										c0,0.1,0.1,0.1,0.1,0.2c0,0.1,0,0.2-0.1,0.3S71.4,61,71.2,61h-4.6c-0.4,0-0.6-0.2-0.8-0.5L64,57.8l-1.7,2.7
										c-0.2,0.3-0.5,0.5-0.8,0.5H57z"/>
								</g>
							</g>
						</g>
					</g>
				</g>
			</g>
		</g>
	</g>
</g>
</svg>
