<?xml version="1.0" encoding="utf-8"?>
<!-- Generator: Adobe Illustrator 23.0.6, SVG Export Plug-In . SVG Version: 6.00 Build 0)  -->
<svg version="1.1" id="Layer_1" xmlns="http://www.w3.org/2000/svg" xmlns:xlink="http://www.w3.org/1999/xlink" x="0px" y="0px"
	 viewBox="0 0 76 76" style="enable-background:new 0 0 76 76;" xml:space="preserve">
<style type="text/css">
	.st0{fill:none;}
	.st1{fill:#D2DFEC;}
	.st2{fill:#05396B;stroke:#05396B;stroke-width:2;}
</style>
<title>Icon_Clock</title>
<desc>Created with Sketch.</desc>
<g id="Desktop">
	<g id="Landing" transform="translate(-320.000000, -1982.000000)">
		<g id="body" transform="translate(-12.000000, 10.000000)">
			<g id="content">
				<g id="section-kampaaniast" transform="translate(332.000000, 860.000000)">
					<g id="Group-19" transform="translate(0.000000, 860.000000)">
						<g id="Group-18" transform="translate(0.000000, 246.000000)">
							<g id="Icon_Clock">
								<g id="Group-16">
									<rect id="Rectangle" y="6" class="st0" width="76" height="76"/>
									<g id="Group" transform="translate(0.000000, 6.477273)">
										<path id="Shape" class="st1" d="M57.5,64.4v-6c0-9.1-7.4-16.5-16.6-16.5H16.7C7.5,42,0.1,49.4,0.1,58.5v6
											c0,2.5,2,4.5,4.5,4.5s4.5-2,4.5-4.5v-6c0-4.1,3.4-7.5,7.6-7.5h24.2c4.2,0,7.6,3.3,7.6,7.5v6c0,2.5,2,4.5,4.5,4.5
											C55.5,69,57.5,66.9,57.5,64.4z"/>
										<path id="Oval" class="st1" d="M28.8,39c9.2,0,16.6-7.4,16.6-16.5S38,6.1,28.8,6.1s-16.6,7.4-16.6,16.5S19.6,39,28.8,39z
											 M28.8,30c-4.2,0-7.6-3.3-7.6-7.5s3.4-7.5,7.6-7.5s7.6,3.3,7.6,7.5S33,30,28.8,30z"/>
										<path class="st1" d="M75.6,64.4v-6c0-7.5-5.1-14.1-12.5-15.9c-2.4-0.6-4.9,0.8-5.5,3.2c-0.6,2.4,0.8,4.9,3.3,5.5
											c3.3,0.9,5.7,3.8,5.7,7.2v6c0,2.5,2,4.5,4.5,4.5S75.6,66.9,75.6,64.4z"/>
										<path class="st1" d="M48.8,15.4c3.4,0.8,5.7,3.8,5.7,7.2s-2.3,6.4-5.7,7.2c-2.4,0.6-3.9,3.1-3.3,5.5
											c0.6,2.4,3.1,3.9,5.5,3.3c7.3-1.9,12.5-8.4,12.5-16s-5.2-14.1-12.5-16c-2.4-0.6-4.9,0.8-5.5,3.3
											C45,12.3,46.4,14.7,48.8,15.4z"/>
									</g>
									<g id="Group-51" transform="translate(18.136364, 18.136364)">
										<path class="st2" d="M19.9,45.7c11,0,19.9-8.9,19.9-19.9S30.8,6,19.9,6S0,14.9,0,25.9S8.9,45.7,19.9,45.7z M19.9,42.1
											c-9,0-16.3-7.3-16.3-16.3S10.9,9.6,19.9,9.6s16.3,7.3,16.3,16.3S28.8,42.1,19.9,42.1z"/>
										<path id="Path" class="st2" d="M21.7,15.2c0-1-0.8-1.8-1.8-1.8c-1,0-1.8,0.8-1.8,1.8V26c0,0.7,0.4,1.3,1,1.6l7.2,3.6
											c0.9,0.4,2,0.1,2.4-0.8s0.1-2-0.8-2.4l-6.2-3.1V15.2z"/>
									</g>
								</g>
							</g>
						</g>
					</g>
				</g>
			</g>
		</g>
	</g>
</g>
</svg>
