<?xml version="1.0" encoding="UTF-8"?>
<svg width="376px" height="237px" viewBox="0 0 376 237" version="1.1" xmlns="http://www.w3.org/2000/svg" xmlns:xlink="http://www.w3.org/1999/xlink">
    <!-- Generator: sketchtool 58 (101010) - https://sketch.com -->
    <title>1242EF8A-8F87-4A0B-B935-64E376C95CE7</title>
    <desc>Created with sketchtool.</desc>
    <defs>
        <polygon id="path-1" points="0.757719437 0.598996009 58.3333814 0.598996009 58.3333814 56.1031058 0.757719437 56.1031058"></polygon>
        <polygon id="path-3" points="0.989038873 0.86954594 49.1085656 0.86954594 49.1085656 55.1871573 0.989038873 55.1871573"></polygon>
    </defs>
    <g id="Desktop" stroke="none" stroke-width="1" fill="none" fill-rule="evenodd">
        <g id="Landing" transform="translate(-532.000000, -161.000000)">
            <g id="body">
                <g id="content">
                    <g id="section-hero">
                        <g id="header">
                            <g id="Logo_PSP" transform="translate(532.000000, 160.000000)">
                                <g id="Group-37">
                                    <path d="M63.2170389,36.296772 C64.1321487,36.3222716 64.9445206,35.9982148 65.6573318,35.3267267 C66.3690839,34.654176 66.72496,33.6310066 66.72496,32.2529684 C66.72496,31.0799891 66.4453431,30.0557572 65.8861093,29.1749603 C65.3258163,28.2952258 64.4371854,27.8404838 63.2170389,27.8054219 C61.4376586,27.7544228 59.6582783,27.6938614 57.878898,27.6248001 L57.878898,36.1161502 C59.6582783,36.186274 61.4376586,36.2457729 63.2170389,36.296772 M39.0428868,65.2334487 C38.6361713,64.7957064 38.4328135,64.2942153 38.4328135,63.7332252 L38.4328135,14.3150976 C38.4328135,13.7541075 38.6361713,13.2855533 39.0428868,12.9083724 C39.4496023,12.5354415 39.9325769,12.366507 40.4918107,12.4090063 C48.1939854,12.9901835 55.89616,13.3726767 63.5983346,13.5862355 C70.7158558,13.781732 76.3209037,15.3850162 80.4134783,18.541648 C84.506053,21.6950923 86.5523403,26.3275105 86.5523403,32.5005266 C86.5523403,38.6172311 84.5187628,43.2029001 80.4516079,46.1948473 C76.3833938,49.185732 70.7666952,50.6551435 63.5983346,50.459647 C61.8189544,50.4097104 60.0395741,50.3523364 58.2601938,50.2843376 L58.2601938,64.8955796 C58.2601938,65.4565697 58.0568361,65.9336238 57.6501206,66.3246169 C57.2423459,66.717735 56.7604304,66.9026067 56.2011966,66.8771072 C50.9647346,66.6561111 45.7282727,66.3533039 40.4918107,65.9580609 C39.9325769,65.9155616 39.4496023,65.6743784 39.0428868,65.2334487" id="Fill-1" fill="#FFFFFF"></path>
                                    <path d="M92.8046377,66.5929997 C92.3968631,66.1945692 92.1945645,65.7143277 92.1945645,65.1533376 L92.1945645,15.7341476 C92.1945645,15.1731575 92.3968631,14.6854786 92.8046377,14.2679234 C93.2102941,13.8514308 93.6932687,13.6357471 94.2535617,13.6240598 C99.4391842,13.5050619 104.624807,13.3276275 109.810429,13.103444 C110.368604,13.0800694 110.851579,13.2638787 111.259353,13.6527468 C111.666069,14.0416149 111.869426,14.5176065 111.869426,15.0785966 L111.869426,64.4967242 C111.869426,65.0577143 111.666069,65.5528305 111.259353,65.977823 C110.851579,66.403878 110.368604,66.629124 109.810429,66.6535611 C104.624807,66.8777446 99.4391842,67.0541165 94.2535617,67.1731144 C93.6932687,67.1858642 93.2102941,66.9924926 92.8046377,66.5929997" id="Fill-3" fill="#FFFFFF"></path>
                                    <path d="M120.867583,65.4942878 C120.459808,65.1107321 120.25751,64.635803 120.25751,64.0748129 L120.25751,14.6556228 C120.25751,14.0956952 120.459808,13.5995165 120.867583,13.1692116 C121.273239,12.7399692 121.756214,12.5083483 122.316507,12.4754113 C127.171673,12.1991662 132.026839,11.8878592 136.882006,11.5499902 C137.44018,11.5096159 137.923155,11.6828003 138.33093,12.0599812 C138.737645,12.4403495 138.941003,12.9099662 138.941003,13.4698938 L138.941003,28.6166264 C141.813431,23.2362214 144.685859,17.8441291 147.558287,12.4467243 C148.168361,11.2790575 149.18409,10.6373188 150.608654,10.5257583 C156.226411,10.0827036 161.844169,9.61202439 167.461927,9.12753294 C167.919482,9.08822114 168.312428,9.22103129 168.643944,9.52277596 C168.973341,9.82770808 169.139628,10.2059514 169.139628,10.6660058 C169.139628,10.9730629 169.063369,11.2599328 168.910851,11.5276781 C164.335301,19.6259101 159.759752,27.7135173 155.184203,35.7873123 C160.191887,43.84517 165.199572,51.8849656 170.207256,59.9151988 C170.359775,60.105383 170.436034,60.3816281 170.436034,60.7354343 C170.436034,61.1944262 170.270806,61.606669 169.940349,61.9657876 C169.608834,62.3270312 169.215887,62.5246527 168.758332,62.565027 C162.962637,63.0675807 157.166941,63.5552596 151.371245,64.0142514 C150.505915,64.0833127 149.819583,63.9473151 149.312248,63.6030712 C148.802794,63.2598898 148.446918,62.8933337 148.24462,62.5012782 C145.143414,57.1824971 142.042208,51.8552161 138.941003,46.5183728 L138.941003,62.8890838 C138.941003,63.4500739 138.737645,63.9494401 138.33093,64.3850574 C137.923155,64.8227997 137.44018,65.059733 136.882006,65.0990448 C132.026839,65.4369138 127.171673,65.7482208 122.316507,66.024466 C121.756214,66.0563404 121.273239,65.8799685 120.867583,65.4942878" id="Fill-5" fill="#FFFFFF"></path>
                                    <path d="M175.392879,61.3729231 C174.985104,61.0010546 174.782806,60.5367503 174.782806,59.9746978 L174.782806,10.5544453 C174.782806,9.99558012 174.985104,9.49196401 175.392879,9.04784685 C175.798535,8.60479217 176.28151,8.35617156 176.841803,8.30729742 C189.882118,7.15344279 202.922434,5.9581514 215.962749,4.87229557 C216.520924,4.82660887 217.003899,4.99129347 217.411673,5.36422438 C217.818389,5.74034274 218.021746,6.20783449 218.021746,6.7677621 L218.021746,17.5540717 C218.021746,18.1161243 217.818389,18.6165529 217.411673,19.0585451 C217.003899,19.5015998 216.520924,19.7438455 215.962749,19.7905947 C208.336834,20.4259585 200.710918,21.0985091 193.085003,21.7774346 L193.085003,26.5968495 C200.151685,25.9667982 207.218366,25.3431217 214.285048,24.7491947 C214.843223,24.7024455 215.326197,24.8660676 215.733972,25.240061 C216.140687,25.6161793 216.344045,26.0826086 216.344045,26.6425362 L216.344045,36.5884231 C216.344045,37.1504757 216.140687,37.6519669 215.733972,38.0918341 C215.326197,38.5348888 214.843223,38.778197 214.285048,38.8249462 C207.218366,39.4188732 200.151685,40.0425497 193.085003,40.672601 L193.085003,45.4920159 C200.914276,44.7939658 208.743549,44.103353 216.572823,43.4541769 C217.130997,43.4074278 217.613972,43.5710499 218.021746,43.9471682 C218.428462,44.3211616 218.63182,44.7897158 218.63182,45.3496435 L218.63182,56.135953 C218.63182,56.6980056 218.428462,57.1984343 218.021746,57.639364 C217.613972,58.0813562 217.132056,58.3246644 216.572823,58.3714136 C203.329149,59.4700192 190.085476,60.6854977 176.841803,61.856352 C176.28151,61.9062887 175.798535,61.745854 175.392879,61.3729231" id="Fill-7" fill="#FFFFFF"></path>
                                    <path d="M226.2571,56.9788194 C225.849325,56.6037635 225.647026,56.1352093 225.647026,55.5742192 L225.647026,6.15502917 C225.647026,5.59510156 225.849325,5.09361041 226.2571,4.65374317 C226.663815,4.21387594 227.145731,3.97163022 227.706024,3.92806849 C231.722339,3.61888644 235.738655,3.32457914 239.75497,3.04833402 C241.177415,2.95058574 242.271522,3.56682486 243.034114,4.89386394 C246.719973,10.7704477 250.405832,16.6640311 254.091691,22.5788642 C257.77755,16.2528509 261.46341,9.94808721 265.149269,3.66776058 C265.910801,2.25784797 267.004908,1.52261095 268.427353,1.46523697 C272.443669,1.30692726 276.459984,1.17624207 280.4763,1.08168124 C281.036593,1.06786898 281.518508,1.26336553 281.926283,1.66073351 C282.332998,2.06128894 282.536356,2.54046798 282.536356,3.10145808 L282.536356,52.5206481 C282.536356,53.0816382 282.331939,53.5703796 281.926283,53.9858097 C281.518508,54.4033649 281.036593,54.6169236 280.4763,54.6307359 C275.87639,54.7401714 271.275421,54.8942312 266.674452,55.0865403 C266.114159,55.1099149 265.632243,54.9271681 265.225528,54.5351125 C264.817753,54.1462444 264.615455,53.6713153 264.615455,53.1092627 L264.615455,32.1486328 C262.937753,34.9769578 261.260052,37.8095328 259.58235,40.6474202 C259.226474,41.227535 258.83141,41.7056515 258.400334,42.0838949 C257.967139,42.4632007 257.420615,42.671447 256.760762,42.7054464 C254.981381,42.8000072 253.202001,42.898818 251.422621,43.0040036 C250.761708,43.0411905 250.214125,42.8956305 249.783049,42.5651989 C249.350914,42.2337047 248.955849,41.7991499 248.601032,41.2583469 C246.923331,38.6074562 245.245629,35.959753 243.567928,33.3162997 L243.567928,54.2769296 C243.567928,54.8379197 243.363511,55.3351609 242.957855,55.7697158 C242.55008,56.2042706 242.068165,56.4412039 241.507872,56.4783907 C236.907962,56.7875728 232.306993,57.1233169 227.706024,57.4781856 C227.145731,57.5217473 226.663815,57.3549378 226.2571,56.9788194" id="Fill-9" fill="#FFFFFF"></path>
                                    <g id="Group-13" transform="translate(285.971831, 0.401618)">
                                        <mask id="mask-2" fill="white">
                                            <use xlink:href="#path-1"></use>
                                        </mask>
                                        <g id="Clip-12"></g>
                                        <path d="M25.2369082,32.363254 C28.1093363,32.4397526 30.9817645,32.5417508 33.8541927,32.6660611 C32.4052687,27.8604585 30.9552856,23.0601682 29.5063617,18.2662529 C28.0839166,22.9592325 26.6604124,27.658587 25.2369082,32.363254 M1.25234479,53.6054415 C0.921888451,53.2792597 0.757719437,52.8850792 0.757719437,52.4260873 C0.757719437,52.2231534 0.78208,52.043594 0.833978592,51.8895343 C6.50257577,35.5390104 12.171173,19.2617978 17.8397701,3.06958364 C18.0420687,2.40872031 18.4233645,1.82754307 18.9836575,1.32498944 C19.5418321,0.825623258 20.3054828,0.581252572 21.2714321,0.599314753 C26.787511,0.70768784 32.3035899,0.898934464 37.8196687,1.18474192 C38.7845589,1.23467854 39.5471504,1.53323577 40.1074434,2.07403872 C40.665618,2.61696663 41.047973,3.2247059 41.2513307,3.90044397 C46.9199279,20.5038384 52.5885251,37.2092309 58.2571223,54.030434 C58.3069025,54.1876812 58.3333814,54.3693655 58.3333814,54.5722994 C58.3333814,55.0302288 58.1681532,55.4105971 57.8366377,55.7102168 C57.5061814,56.0098365 57.1132349,56.1383967 56.65568,56.094835 C51.9530321,55.6549678 47.2503842,55.2937242 42.5477363,55.0036668 C41.0225532,54.9101684 40.0301251,54.2163682 39.5736293,52.9158911 C38.9635561,51.1999839 38.3534828,49.4830142 37.7434096,47.769232 C32.2781701,47.486612 26.8129307,47.2974903 21.3476913,47.1901797 C20.737618,48.8604002 20.1275448,50.5327457 19.5174715,52.2061537 C19.0599166,53.4736938 18.0674885,54.0941828 16.5433645,54.0771831 C11.8407166,54.0251216 7.13806873,54.030434 2.43542085,54.0867455 C1.97786592,54.0931204 1.58280113,53.9326857 1.25234479,53.6054415" id="Fill-11" fill="#FFFFFF" mask="url(#mask-2)"></path>
                                    </g>
                                    <path d="M11.4007437,146.295668 C7.66404507,144.267391 4.85410704,141.824746 2.97410704,139.030421 C1.09304789,136.236095 0.101678873,133.341896 -4.97379915e-13,130.364824 C-4.97379915e-13,129.905832 0.164169014,129.539276 0.495684507,129.267281 C0.826140845,128.995285 1.22014648,128.8986 1.67770141,128.977223 C6.50744789,129.817646 11.3371944,130.558195 16.1669408,131.208434 C16.8776338,131.30512 17.4495775,131.468742 17.8827718,131.70355 C18.3138479,131.938359 18.8360113,132.349539 19.4460845,132.936028 C20.9204282,134.294942 22.8014873,135.109865 25.089262,135.365923 C26.8167437,135.560357 28.2031775,135.512545 29.2453859,135.237363 C30.2865352,134.958993 30.8086986,134.488314 30.8086986,133.824263 C30.8086986,132.905216 30.1223662,132.139167 28.7497014,131.513366 C27.3770366,130.887565 24.7842254,130.120453 20.9712676,129.146158 C7.85469296,125.778092 1.29640563,118.85284 1.29640563,109.403131 C1.29640563,105.986192 2.27506479,103.114305 4.2323831,100.764096 C6.18864225,98.4128254 8.92232113,96.7787293 12.4302423,95.804434 C15.9381634,94.8312011 19.9798986,94.6272047 24.5554479,95.1435706 C29.3332958,95.6833111 33.5275493,96.8934772 37.1382085,98.8240057 C40.7478085,100.756659 43.5174986,102.997432 45.4504563,105.596261 C47.3823549,108.19509 48.3980845,110.658984 48.5008225,113.01238 C48.5008225,113.469247 48.3355944,113.857053 48.005138,114.169422 C47.6736225,114.481792 47.3050366,114.625227 46.8993803,114.599727 C41.8154366,114.286295 36.731493,113.891052 31.6475493,113.403373 C30.934738,113.336437 30.3765634,113.193002 29.9698479,112.972006 C29.5620732,112.752072 29.1045183,112.388704 28.5971831,111.875525 C27.5295549,110.849168 26.1823099,110.244617 24.5554479,110.060807 C22.1151549,109.784562 20.8950085,110.34449 20.8950085,111.772465 C20.8950085,112.538514 21.4913127,113.249313 22.6870986,113.900614 C23.8807662,114.550853 26.1060507,115.270153 29.3597746,116.008577 C34.4426592,117.186869 38.5225239,118.505408 41.599369,120.056631 C44.6751549,121.606791 46.911031,123.512882 48.3101746,125.814217 C49.7072,128.113426 50.4073014,130.943876 50.4073014,134.309817 C50.4073014,137.928628 49.3131944,141.050198 47.1281577,143.643714 C44.9410028,146.238294 41.9298254,148.14651 38.0914479,149.315239 C34.2520113,150.481844 29.9179493,150.823963 25.089262,150.284222 C19.6992225,149.682858 15.1374423,148.323944 11.4007437,146.295668" id="Fill-14" fill="#FFFFFF"></path>
                                    <path d="M84.1509183,136.646213 C85.1422873,135.617731 85.6633915,134.056946 85.714231,131.965983 C85.8159099,129.006973 85.8667493,126.838449 85.8667493,125.462535 C85.8667493,123.982499 85.8159099,121.866036 85.714231,119.11421 C85.6633915,117.022184 85.1295775,115.474149 84.1127887,114.460542 C83.0949408,113.450122 81.7487549,112.947569 80.0710535,112.949687 C78.3933521,112.951819 77.046107,113.458622 76.0293183,114.471167 C75.0114704,115.485836 74.4776563,117.035997 74.4278761,119.12696 C74.3759775,120.503935 74.3516169,122.620398 74.3516169,125.476348 C74.3516169,128.332297 74.3759775,130.500821 74.4278761,131.97767 C74.4776563,134.069696 74.9998197,135.631543 75.9911887,136.656838 C76.9825577,137.682132 78.3425127,138.196373 80.0710535,138.194255 C81.7985352,138.192123 83.1595493,137.674695 84.1509183,136.646213 M82.282569,94.9278869 C81.469138,94.6537668 80.6048676,94.2585238 79.6897577,93.7485328 C78.9769465,93.393664 78.3552225,93.1099815 77.8214085,92.9070476 C77.2875944,92.7019887 76.7400113,92.5968031 76.1818366,92.5936156 C75.6215437,92.5904282 75.1777577,92.7030512 74.8473014,92.9304222 C74.5157859,93.1567307 74.1990986,93.4733501 73.894062,93.8781555 C73.436507,94.5878929 72.9281127,94.9395742 72.3688789,94.9321369 C70.2336225,94.9076998 68.0983662,94.8705129 65.9631099,94.8205763 C65.5553352,94.811014 65.212169,94.6622666 64.9336113,94.3743342 C64.6539944,94.0885268 64.5141859,93.7665949 64.5141859,93.4085388 C64.5141859,91.9295649 64.8308732,90.2667817 65.4674254,88.4212518 C66.1018592,86.5757219 67.194907,84.9692502 68.746569,83.5943995 C70.2961127,82.2216738 72.3424,81.5512481 74.885431,81.5703728 C76.0028394,81.5788726 76.9698479,81.7244325 77.7832789,82.0049276 C78.5956507,82.2886101 79.4609803,82.6838531 80.3760901,83.1917191 C81.0867831,83.5476503 81.7106254,83.8260204 82.2444394,84.0278919 C82.7782535,84.2297633 83.3237183,84.3285741 83.8840113,84.3232617 C84.4432451,84.3200742 84.8753803,84.2000138 85.1804169,83.9683929 C85.4854535,83.7357095 85.7904901,83.4127152 86.0955268,83.0025975 C86.2978254,82.745477 86.5266028,82.5000438 86.7818592,82.2673605 C87.0360563,82.036802 87.341093,81.9156792 87.696969,81.9114292 C89.8322254,81.8838047 91.9674817,81.8444929 94.102738,81.7956188 C94.560293,81.784994 94.9151099,81.9178041 95.1703662,82.1919243 C95.4245634,82.4660444 95.551662,82.8071009 95.551662,83.2150937 C95.551662,84.6951301 95.2339155,86.372788 94.5984225,88.2480674 C93.9618704,90.1254717 92.8688225,91.7701927 91.3192789,93.1758554 C89.7676169,94.5815181 87.7223887,95.3018803 85.1804169,95.3273799 C84.0619493,95.3380047 83.0949408,95.2041321 82.282569,94.9278869 M61.8451155,147.56852 C57.3193465,143.906147 54.9055324,138.658552 54.6004958,131.916046 C54.5496563,130.536946 54.5242366,128.317422 54.5242366,125.256414 C54.5242366,122.147594 54.5496563,119.879196 54.6004958,118.452284 C54.7530141,114.073799 55.9085521,110.354052 58.0702873,107.276044 C60.2309634,104.198036 63.1913014,101.902014 66.9544789,100.350791 C70.715538,98.8006311 75.0877296,98.038832 80.0710535,98.0324169 C85.0533183,98.0260822 89.4244507,98.7772565 93.1876282,100.328479 C96.9486873,101.880764 99.9100845,104.185286 102.07182,107.273919 C104.231437,110.363614 105.389093,114.090799 105.541611,118.471409 C105.64329,121.324171 105.69413,123.591506 105.69413,125.274476 C105.69413,126.956384 105.64329,129.178032 105.541611,131.934109 C105.236575,138.677677 102.820642,143.901897 98.2969915,147.554708 C93.7712225,151.200081 87.696969,153.10086 80.0710535,153.112583 C72.445138,153.12211 66.3687662,151.22983 61.8451155,147.56852" id="Fill-16" fill="#FFFFFF"></path>
                                    <path d="M137.340832,119.236714 C138.255941,119.171903 139.068313,118.770285 139.781125,118.029735 C140.492877,117.290248 140.848753,116.232017 140.848753,114.853979 C140.848753,113.681 140.569136,112.68333 140.009902,111.855657 C139.449609,111.029046 138.560978,110.660365 137.340832,110.745364 C135.561451,110.869674 133.782071,110.990797 132.002691,111.108733 L132.002691,119.600083 C133.782071,119.482147 135.561451,119.361024 137.340832,119.236714 M113.166679,150.88803 C112.759964,150.500225 112.556606,150.026358 112.556606,149.463243 L112.556606,100.045115 C112.556606,99.4851877 112.759964,98.991134 113.166679,98.562954 C113.573395,98.136899 114.05637,97.9084656 114.615603,97.8808411 C122.317778,97.5057852 130.019953,97.0319185 137.722127,96.4889906 C144.839648,95.986437 150.444696,97.1232919 154.537271,99.9548044 C158.629846,102.785254 160.676133,107.274238 160.676133,113.447254 C160.676133,119.565021 158.642555,124.290937 154.575401,127.603754 C150.507186,130.917633 144.890488,132.856661 137.722127,133.362402 C135.942747,133.487775 134.163367,133.608898 132.383986,133.726833 L132.383986,148.338075 C132.383986,148.899065 132.180629,149.398432 131.773913,149.830861 C131.366139,150.267541 130.884223,150.501287 130.324989,150.537411 C125.088527,150.874218 119.852065,151.175963 114.615603,151.430958 C114.05637,151.45752 113.573395,151.277961 113.166679,150.88803" id="Fill-18" fill="#FFFFFF"></path>
                                    <path d="M190.95017,114.385956 C192.068638,114.286083 192.932908,113.839841 193.542981,113.046167 C194.153055,112.251431 194.45915,111.294135 194.45915,110.172155 C194.45915,109.051238 194.164705,108.095004 193.581111,107.304518 C192.996457,106.51722 192.119477,106.172976 190.95017,106.277099 L185.383252,106.775403 L185.383252,114.88426 L190.95017,114.385956 Z M166.928536,147.109316 C166.521821,146.737447 166.318463,146.271018 166.318463,145.708965 L166.318463,96.2908379 C166.318463,95.7287853 166.521821,95.2294191 166.928536,94.7842395 C167.335252,94.3422473 167.818226,94.0957516 168.37746,94.0468775 C175.901697,93.3955765 183.425934,92.7198384 190.95017,92.0483503 C198.271049,91.3938618 203.991545,92.5370916 208.10848,95.4716648 C212.226474,98.406238 214.285472,102.787911 214.285472,108.600746 C214.285472,111.91675 213.5483,114.895947 212.073956,117.546838 C210.599612,120.195603 208.591455,122.445939 206.049483,124.297843 C209.176108,129.840808 212.302734,135.388023 215.429359,140.94055 C215.580818,141.233794 215.658136,141.507915 215.658136,141.76291 C215.658136,142.22084 215.492908,142.63202 215.162452,142.990076 C214.831995,143.350257 214.43799,143.546816 213.980435,143.586128 C208.769393,144.024933 203.55835,144.478612 198.347308,144.939729 C197.432198,145.020478 196.708795,144.868543 196.174981,144.482862 C195.640108,144.097181 195.270463,143.657314 195.068165,143.166448 C192.882069,138.490468 190.695973,133.814488 188.509877,129.13957 C187.467669,129.233069 186.42546,129.326567 185.383252,129.419003 L185.383252,144.030245 C185.383252,144.591235 185.179894,145.093789 184.773179,145.536843 C184.365404,145.982023 183.883488,146.229581 183.324255,146.279518 C178.34199,146.723635 173.359725,147.165627 168.37746,147.596995 C167.818226,147.645869 167.335252,147.482247 166.928536,147.109316 L166.928536,147.109316 Z" id="Fill-20" fill="#FFFFFF"></path>
                                    <path d="M227.591423,138.010651 C223.141913,134.862519 220.918747,129.806171 220.918747,122.818232 L220.918747,91.5302844 C220.918747,90.9692943 221.122105,90.4688657 221.527761,90.0268735 C221.934477,89.5870062 222.417451,89.3426355 222.977744,89.2980113 C227.960009,88.9006433 232.942274,88.5234625 237.924539,88.1739062 C238.482713,88.1356568 238.965688,88.3067163 239.373463,88.6849597 C239.780178,89.0663904 239.983536,89.5370696 239.983536,90.0969972 L239.983536,121.07895 C239.983536,123.017979 240.453801,124.450203 241.39433,125.380937 C242.33486,126.31167 243.745654,126.715413 245.626713,126.596415 C247.506713,126.477417 248.917508,125.893053 249.858037,124.841196 C250.798567,123.792527 251.268832,122.299741 251.268832,120.360713 L251.268832,89.3787599 C251.268832,88.8177698 251.472189,88.3215911 251.879964,87.8891612 C252.28562,87.4577938 252.768595,87.2261729 253.328888,87.1942985 C258.311153,86.9127409 263.293417,86.6683703 268.275682,86.4696863 C268.833857,86.4484366 269.317891,86.6354333 269.724606,87.0264264 C270.130263,87.4195445 270.33362,87.8965986 270.33362,88.4554637 L270.33362,119.745536 C270.33362,126.733475 268.123164,132.049069 263.700133,135.739066 C259.277102,139.433314 253.278048,141.486027 245.702972,141.968394 C238.075998,142.456073 232.038815,141.161971 227.591423,138.010651" id="Fill-22" fill="#FFFFFF"></path>
                                    <path d="M286.843092,138.054213 C283.107452,136.628363 280.296455,134.725459 278.416455,132.298752 C276.535396,129.877357 275.544027,127.191405 275.442348,124.236645 C275.442348,123.777653 275.607576,123.37816 275.938033,123.036041 C276.268489,122.696047 276.663554,122.51755 277.12005,122.503738 C281.949796,122.366678 286.779543,122.277429 291.609289,122.24343 C292.321041,122.23918 292.892985,122.325241 293.32512,122.501613 C293.756196,122.679047 294.279419,123.023291 294.889492,123.529032 C296.362776,124.702011 298.244895,125.288501 300.532669,125.305501 C302.260151,125.319313 303.645526,125.146128 304.688793,124.780635 C305.729943,124.411954 306.251047,123.9009 306.251047,123.23685 C306.251047,122.318866 305.565774,121.604878 304.193109,121.1002 C302.819385,120.598709 300.227633,120.065343 296.413616,119.551102 C283.297041,117.835195 276.738754,112.519601 276.738754,103.008269 C276.738754,99.5923921 277.717413,96.5133214 279.674731,93.7880571 C281.63205,91.0617302 284.364669,88.9250804 287.87365,87.3972324 C291.380512,85.8746968 295.423306,85.1107728 299.998855,85.1405222 C304.776703,85.1734591 308.970957,86.0755057 312.581616,87.813725 C316.190157,89.5540693 318.959847,91.723656 320.892805,94.2852983 C322.824703,96.8490655 323.841492,99.3129595 323.943171,101.664231 C323.943171,102.121097 323.777943,102.508903 323.448545,102.82446 C323.11703,103.140017 322.748444,103.284514 322.342788,103.266452 C317.257785,103.016769 312.1749,102.848897 307.089897,102.750086 C306.377086,102.737337 305.818912,102.639588 305.412196,102.452592 C305.004421,102.26772 304.547926,101.943663 304.039531,101.476171 C302.972962,100.543313 301.624658,100.069446 299.998855,100.057759 C297.557503,100.041822 296.338416,100.760059 296.338416,102.184846 C296.338416,102.950895 296.93472,103.589447 298.129447,104.102625 C299.323114,104.617928 301.548399,105.084358 304.802123,105.541225 C309.886066,106.282836 313.964872,107.405879 317.042776,108.849791 C320.117503,110.294766 322.353379,112.177482 323.753582,114.467129 C325.150607,116.757839 325.84965,119.591477 325.84965,122.957417 C325.84965,126.578353 324.756602,129.689298 322.570506,132.307252 C320.38441,134.929456 317.372174,136.897171 313.533796,138.255022 C309.694359,139.613936 305.361357,140.260987 300.532669,140.2238 C295.14263,140.183425 290.57979,139.479 286.843092,138.054213" id="Fill-24" fill="#FFFFFF"></path>
                                    <path d="M332.026747,140.020441 C331.618972,139.585886 331.416674,139.087582 331.416674,138.526592 L331.416674,89.1074022 C331.416674,88.5474746 331.618972,88.0757329 332.026747,87.6953646 C332.433463,87.3171213 332.915378,87.1449993 333.475671,87.1853736 C346.515986,88.1331069 359.556302,89.6460802 372.596617,91.8772908 C373.154792,91.9729141 373.637767,92.2629715 374.045541,92.741088 C374.452257,93.2192046 374.655615,93.7419454 374.655615,94.301873 L374.655615,105.08712 C374.655615,105.650235 374.452257,106.09754 374.045541,106.435409 C373.637767,106.771153 373.154792,106.891213 372.596617,106.79559 C364.970702,105.490863 357.344786,104.431569 349.718871,103.587959 L349.718871,108.406311 C356.785553,109.187235 363.852234,110.155156 370.918916,111.331322 C371.477091,111.424821 371.960065,111.710628 372.36784,112.187682 C372.774555,112.665799 372.977913,113.18429 372.977913,113.746342 L372.977913,123.691167 C372.977913,124.252157 372.774555,124.702649 372.36784,125.038393 C371.960065,125.378387 371.477091,125.500572 370.918916,125.407074 C363.852234,124.23197 356.785553,123.264049 349.718871,122.482063 L349.718871,127.301478 C357.548144,128.168463 365.377417,129.261756 373.206691,130.614294 C373.764865,130.71098 374.24784,131.001038 374.655615,131.480217 C375.06233,131.960458 375.265688,132.483199 375.265688,133.043127 L375.265688,143.829436 C375.265688,144.390426 375.061271,144.837731 374.655615,145.173475 C374.24784,145.510281 373.764865,145.628217 373.206691,145.531531 C359.963017,143.242946 346.719344,141.697036 333.475671,140.735491 C332.915378,140.695116 332.433463,140.457121 332.026747,140.020441" id="Fill-26" fill="#FFFFFF"></path>
                                    <g id="Group-30" transform="translate(85.791549, 182.085910)">
                                        <mask id="mask-4" fill="white">
                                            <use xlink:href="#path-3"></use>
                                        </mask>
                                        <g id="Clip-29"></g>
                                        <path d="M25.7732642,23.6579202 C26.6883741,23.6164834 27.5007459,23.2350526 28.2135572,22.5104404 C28.9253093,21.7868907 29.2811854,20.7392842 29.2811854,19.3601835 C29.2811854,18.1882667 29.0015685,17.1831595 28.4423346,16.3416743 C27.8820417,15.5023141 26.9934107,15.1102586 25.7732642,15.1665701 C23.9938839,15.2473187 22.2145037,15.3216923 20.4351234,15.3918161 L20.4351234,23.8831662 C22.2145037,23.8130424 23.9938839,23.7386687 25.7732642,23.6579202 M1.59911211,54.595249 C1.19239662,54.1936311 0.989038873,53.7112646 0.989038873,53.1502745 L0.989038873,3.73108446 C0.989038873,3.17221933 1.19239662,2.68454044 1.59911211,2.27017276 C2.00582761,1.85793003 2.48880225,1.64543378 3.04803606,1.63693393 C10.7502107,1.52218596 18.4523854,1.27250287 26.15456,0.920821577 C33.2720811,0.592514873 38.877129,1.83774289 42.9697037,4.74362909 C47.0622783,7.64632784 49.1085656,12.1693105 49.1085656,18.3402015 C49.1085656,24.4579685 47.0749882,29.1551981 43.0078332,32.3947034 C38.9396192,35.6331463 33.3229206,37.4638014 26.15456,37.7942331 C24.3751797,37.8749817 22.5957994,37.9504178 20.8164192,38.0205416 L20.8164192,52.6317836 C20.8164192,53.1917113 20.6130614,53.6868275 20.2063459,54.1086326 C19.7985713,54.5346876 19.3166558,54.7546212 18.757422,54.7748083 C13.52096,54.9681799 8.28449803,55.1094899 3.04803606,55.1873804 C2.48880225,55.1966134 2.00582761,54.9979294 1.59911211,54.595249" id="Fill-28" fill="#FFFFFF" mask="url(#mask-4)"></path>
                                    </g>
                                    <path d="M165.212494,174.996155 C164.882037,174.693347 164.716809,174.286417 164.716809,173.776426 L164.716809,164.290594 C164.716809,163.780603 164.882037,163.346048 165.212494,162.985867 C165.54295,162.625686 165.962375,162.424877 166.47077,162.380252 C169.622815,162.10932 172.77486,161.833075 175.926905,161.555767 C176.43424,161.511143 176.853665,161.639703 177.185181,161.94251 C177.515637,162.244255 177.680865,162.651185 177.680865,163.160114 L177.680865,172.645946 C177.680865,173.155937 177.515637,173.591554 177.185181,173.952798 C176.853665,174.312979 176.43424,174.515913 175.926905,174.560537 C172.77486,174.838907 169.622815,175.11409 166.47077,175.385023 C165.962375,175.429647 165.54295,175.300024 165.212494,174.996155 M156.633339,211.709131 C159.505767,211.473261 162.378195,211.231015 165.250623,210.985582 C163.801699,206.365913 162.352775,201.746245 160.903851,197.124451 C159.480347,201.987428 158.056843,206.84828 156.633339,211.709131 M144.698781,176.656813 C144.367265,176.350818 144.203096,175.942825 144.203096,175.431772 L144.203096,165.945939 C144.203096,165.437011 144.367265,165.004581 144.698781,164.647587 C145.029237,164.290594 145.448663,164.092972 145.957057,164.05366 C149.109102,163.814602 152.261147,163.563856 155.413192,163.307798 C155.921586,163.266362 156.341012,163.398109 156.671468,163.703041 C157.001925,164.006911 157.167153,164.413841 157.167153,164.923832 L157.167153,174.408602 C157.167153,174.919656 157.001925,175.354211 156.671468,175.713329 C156.341012,176.073511 155.921586,176.272195 155.413192,176.312569 C152.261147,176.568627 149.109102,176.819372 145.957057,177.058431 C145.448663,177.097743 145.029237,176.96387 144.698781,176.656813 M132.649834,234.88716 C132.318319,234.577978 132.15415,234.192297 132.15415,233.733305 C132.15415,233.530371 132.17957,233.349749 132.230409,233.192502 C137.899006,216.550859 143.567603,199.866716 149.236201,183.156011 C149.438499,182.476023 149.819795,181.862971 150.380088,181.306231 C150.939322,180.752678 151.701913,180.437121 152.667863,180.35956 C158.183941,179.917568 163.70002,179.451138 169.216099,178.973022 C170.180989,178.888023 170.943581,179.07927 171.503874,179.539324 C172.063108,180.001504 172.444403,180.553994 172.647761,181.19892 C178.316358,196.971454 183.986015,212.732301 189.654612,228.49421 C189.704392,228.642958 189.730871,228.819329 189.730871,229.022263 C189.730871,229.480193 189.565643,229.892435 189.234127,230.252617 C188.903671,230.614923 188.510725,230.813607 188.05317,230.855043 C183.350522,231.275786 178.647874,231.695466 173.944167,232.108771 C172.418984,232.243706 171.427615,231.692279 170.97006,230.457675 C170.359986,228.827829 169.749913,227.197983 169.13984,225.568137 C163.674601,226.042003 158.209361,226.504183 152.744122,226.941925 C152.134048,228.673769 151.523975,230.404551 150.913902,232.135333 C150.456347,233.446435 149.464978,234.16361 147.939795,234.280483 C143.237147,234.644914 138.534499,234.988096 133.831851,235.304715 C133.374296,235.335527 132.980291,235.196342 132.649834,234.88716" id="Fill-31" fill="#FFFFFF"></path>
                                    <path d="M194.533185,229.664214 C194.125411,229.293409 193.923112,228.828042 193.923112,228.267052 L193.923112,178.847862 C193.923112,178.287934 194.125411,177.78538 194.533185,177.339138 C194.939901,176.897146 195.421816,176.649588 195.982109,176.598589 C209.022425,175.440484 222.06274,174.314254 235.103056,173.373958 C235.66123,173.331459 236.144205,173.504643 236.55198,173.881824 C236.958695,174.26113 237.162053,174.730747 237.162053,175.291737 L237.162053,186.078046 C237.162053,186.640099 236.958695,187.13734 236.55198,187.576145 C236.144205,188.013887 235.66123,188.249758 235.103056,188.292257 C227.47714,188.84156 219.851225,189.455674 212.225309,190.101663 L212.225309,194.920015 C219.291991,194.320776 226.358673,193.750224 233.425354,193.231733 C233.983529,193.191358 234.466504,193.35923 234.874278,193.738536 C235.280994,194.118905 235.485411,194.587459 235.484352,195.148449 L235.484352,205.093273 C235.484352,205.654263 235.280994,206.15363 234.874278,206.590309 C234.466504,207.028052 233.983529,207.266047 233.425354,207.307484 C226.358673,207.825975 219.291991,208.396527 212.225309,208.995767 L212.225309,213.816244 C220.054583,213.152194 227.883856,212.523205 235.713129,211.961152 C236.271304,211.920778 236.754278,212.0929 237.162053,212.470081 C237.568768,212.851511 237.772126,213.320066 237.772126,213.881056 L237.772126,224.667365 C237.772126,225.228355 237.568768,225.727721 237.162053,226.163339 C236.754278,226.601081 236.271304,226.838014 235.713129,226.878389 C222.469456,227.828247 209.225783,228.972539 195.982109,230.147643 C195.421816,230.198643 194.939901,230.038208 194.533185,229.664214" id="Fill-33" fill="#FFFFFF"></path>
                                    <path d="M257.293199,224.760545 C256.733965,224.281366 256.35161,223.715063 256.150371,223.061637 C251.371464,207.050045 246.592557,191.072452 241.81365,175.123546 C241.78823,174.947174 241.761751,174.76974 241.736331,174.593368 C241.736331,174.134376 241.901559,173.729571 242.232016,173.375764 C242.562472,173.020896 242.957537,172.829649 243.414033,172.7999 C248.1421,172.488593 252.870168,172.207035 257.598235,171.960539 C258.563126,171.910603 259.326776,172.129474 259.88601,172.609716 C260.445244,173.093144 260.82654,173.660509 261.029897,174.313935 C263.444771,183.682895 265.859644,193.061417 268.274517,202.450564 C270.68939,192.868045 273.104264,183.298277 275.519137,173.739133 C275.721435,173.06977 276.10379,172.471593 276.663024,171.944602 C277.222258,171.418674 277.98485,171.141366 278.950799,171.115867 C283.679926,170.993682 288.406934,170.918245 293.136061,170.896975 C293.592557,170.894871 293.986562,171.058493 294.317019,171.39105 C294.647475,171.721481 294.813762,172.114599 294.813762,172.574654 C294.788343,172.75315 294.761864,172.931647 294.737503,173.110144 C289.957537,189.387357 285.179689,205.723006 280.399723,222.105404 C280.196365,222.773705 279.815069,223.368694 279.255835,223.892498 C278.696602,224.417363 277.932951,224.692546 276.968061,224.719108 C271.172365,224.884855 265.376669,225.119663 259.580974,225.408658 C258.615024,225.457533 257.852433,225.241849 257.293199,224.760545" id="Fill-35" fill="#FFFFFF"></path>
                                </g>
                            </g>
                        </g>
                    </g>
                </g>
            </g>
        </g>
    </g>
</svg>