<?xml version="1.0" encoding="UTF-8"?>
<svg width="169px" height="101px" viewBox="0 0 169 101" version="1.1" xmlns="http://www.w3.org/2000/svg" xmlns:xlink="http://www.w3.org/1999/xlink">
    <!-- Generator: Sketch 58 (84663) - https://sketch.com -->
    <title>Mails</title>
    <desc>Created with Sketch.</desc>
    <g id="Desktop" stroke="none" stroke-width="1" fill="none" fill-rule="evenodd" stroke-linecap="round" stroke-linejoin="round">
        <g id="Landing" transform="translate(-649.000000, -4201.000000)" stroke="#5CDB94">
            <g id="body" transform="translate(-12.000000, 0.000000)">
                <g id="content">
                    <g id="section-kursis" transform="translate(332.000000, 3998.000000)">
                        <g id="Mails" transform="translate(330.000000, 204.000000)">
                            <g id="mail" transform="translate(38.000000, 63.000000) rotate(-30.000000) translate(-38.000000, -63.000000) translate(8.000000, 39.000000)">
                                <path d="M6,0 L54,0 C57.3,0 60,2.7 60,6 L60,42 C60,45.3 57.3,48 54,48 L6,48 C2.7,48 0,45.3 0,42 L0,6 C0,2.7 2.7,0 6,0 Z" id="Path" stroke-width="6"></path>
                                <polyline id="Path" stroke-width="6" points="60 6 30 27 0 6"></polyline>
                            </g>
                            <g id="mail" transform="translate(137.000000, 29.000000) rotate(-30.000000) translate(-137.000000, -29.000000) translate(113.000000, 10.000000)">
                                <path d="M4.8,0 L43.2,0 C45.84,0 48,2.1375 48,4.75 L48,33.25 C48,35.8625 45.84,38 43.2,38 L4.8,38 C2.16,38 0,35.8625 0,33.25 L0,4.75 C0,2.1375 2.16,0 4.8,0 Z" id="Path" stroke-width="4.8"></path>
                                <polyline id="Path" stroke-width="4.8" points="48 4.75 24 21.375 0 4.75"></polyline>
                            </g>
                        </g>
                    </g>
                </g>
            </g>
        </g>
    </g>
</svg>