<?xml version="1.0" encoding="UTF-8"?>
<svg width="134px" height="119px" viewBox="0 0 134 119" version="1.1" xmlns="http://www.w3.org/2000/svg" xmlns:xlink="http://www.w3.org/1999/xlink">
    <!-- Generator: sketchtool 58 (101010) - https://sketch.com -->
    <title>EB0562CC-B248-49EB-B990-1C2EECD37B26</title>
    <desc>Created with sketchtool.</desc>
    <g id="Desktop" stroke="none" stroke-width="1" fill="none" fill-rule="evenodd">
        <g id="Landing" transform="translate(-353.000000, -1160.000000)">
            <g id="body">
                <g id="content">
                    <g id="section-kampaaniast" transform="translate(332.000000, 870.000000)">
                        <g id="Group-14" transform="translate(0.000000, 262.000000)">
                            <g id="Par_Heart">
                                <g id="Group-15">
                                    <rect id="Rectangle" x="0" y="0" width="176" height="176"></rect>
                                    <g id="heart" transform="translate(28.000000, 35.000000)" stroke="#5CDB94" stroke-linecap="round" stroke-linejoin="round" stroke-width="12.0556187">
                                        <path d="M110.746879,9.37116882 C104.825135,3.37106183 96.7918571,0 88.4152801,0 C80.0387031,0 72.0054256,3.37106183 66.0836816,9.37116882 L59.9984646,15.5340185 L53.9132475,9.37116882 C41.5798462,-3.11957635 21.5834521,-3.1195762 9.25005095,9.37116916 C-3.08335019,21.8619145 -3.08335033,42.113414 9.25005061,54.6041596 L15.3352677,60.7670092 L59.9984646,106 L104.661661,60.7670092 L110.746879,54.6041596 C116.671403,48.6068685 120,40.471106 120,31.9876642 C120,23.5042224 116.671403,15.3684599 110.746879,9.37116882 Z" id="Shape"></path>
                                    </g>
                                </g>
                            </g>
                        </g>
                    </g>
                </g>
            </g>
        </g>
    </g>
</svg>