<?xml version="1.0" encoding="UTF-8"?>
<svg width="132px" height="132px" viewBox="0 0 132 132" version="1.1" xmlns="http://www.w3.org/2000/svg" xmlns:xlink="http://www.w3.org/1999/xlink">
    <!-- Generator: Sketch 58 (84663) - https://sketch.com -->
    <title>Par_Target</title>
    <desc>Created with Sketch.</desc>
    <g id="Desktop" stroke="none" stroke-width="1" fill="none" fill-rule="evenodd">
        <g id="Landing" transform="translate(-342.000000, -2610.000000)" fill="#5CDB94" fill-rule="nonzero">
            <g id="body" transform="translate(-12.000000, 0.000000)">
                <g id="content">
                    <g id="section-kuidas" transform="translate(332.000000, 2176.000000)">
                        <g id="Group" transform="translate(22.000000, 412.000000)">
                            <g id="Par_Target" transform="translate(0.000000, 22.000000)">
                                <path d="M66,0 C102.450793,0 132,29.5492065 132,66 C132,102.450793 102.450793,132 66,132 C29.5492065,132 0,102.450793 0,66 C0,29.5492065 29.5492065,0 66,0 Z M66,12 C36.1766235,12 12,36.1766235 12,66 C12,95.8233765 36.1766235,120 66,120 C95.8233765,120 120,95.8233765 120,66 C120,36.1766235 95.8233765,12 66,12 Z M66,24 C89.1959595,24 108,42.8040405 108,66 C108,89.1959595 89.1959595,108 66,108 C42.8040405,108 24,89.1959595 24,66 C24,42.8040405 42.8040405,24 66,24 Z M66,36 C49.4314575,36 36,49.4314575 36,66 C36,82.5685425 49.4314575,96 66,96 C82.5685425,96 96,82.5685425 96,66 C96,49.4314575 82.5685425,36 66,36 Z M66,48 C75.9411255,48 84,56.0588745 84,66 C84,75.9411255 75.9411255,84 66,84 C56.0588745,84 48,75.9411255 48,66 C48,56.0588745 56.0588745,48 66,48 Z M66,60 C62.6862915,60 60,62.6862915 60,66 C60,69.3137085 62.6862915,72 66,72 C69.3137085,72 72,69.3137085 72,66 C72,62.6862915 69.3137085,60 66,60 Z" id="Combined-Shape"></path>
                            </g>
                        </g>
                    </g>
                </g>
            </g>
        </g>
    </g>
</svg>